PathFileType	4	(X/Y/Z)	OpenSim_Sub01_EMGStiffKnee_Gyro.trc
DataRate	CameraRate	NumFrames	NumMarkers	Units	OrigDataRate	OrigDataStartFrame	OrigNumFrames
100	100	13	8	m	100	4176	5567
Frame#	Time	torso_imu_offset_imu	pelvis_imu_offset_imu	tibia_r_imu_offset_imu	femur_r_imu_offset_imu	tibia_l_imu_offset_imu	femur_l_imu_offset_imu	toes_r_imu_offset_imu	toes_l_imu_offset_imu
				X1	Y1	Z1	X2	Y2	Z2	X3	Y3	Z3	X4	Y4	Z4	X5	Y5	Z5	X6	Y6	Z6	X7	Y7	Z7	X8		Y8	Z8	

4176	41.75000000	-0.10222515	0.36847784	-0.24546042	-0.37826096	0.15861654	-0.08843661	-0.82029778	0.16428542	-1.95729976	-0.46385630	0.22407379	-0.05343776	-1.37376636	-0.19407577	1.34031682	-0.14058157	-0.47276839	0.42178584	-0.84980339	-2.79932649	0.17923298	-0.86246909	-2.38588771	0.79439811
4177	41.76000000	-0.03899113	0.32992840	-0.21533407	-0.21858970	0.19646416	-0.14818825	-0.93867574	0.11529085	-2.06340027	-0.35999535	0.34551905	0.09346190	-1.37302778	0.00447288	1.28063950	-0.00778601	-0.32789113	0.51963593	-1.00815545	-3.29549301	0.17827110	-0.62898558	-2.24512748	0.53459374
4178	41.77000000	0.03465957	0.29734317	-0.19197931	-0.11836593	0.09202610	-0.18295677	-0.94596427	0.05296726	-2.10547087	-0.27185324	0.47199276	0.27412495	-1.23885751	0.16639076	1.31289644	0.08725775	-0.16680884	0.39154301	-1.10542069	-3.80293055	0.01068973	-0.40774156	-2.20465919	0.32958617
4179	41.78000000	0.10263704	0.27342813	-0.17465953	-0.09135876	-0.12513028	-0.17993684	-0.83269626	-0.01440385	-2.09818978	-0.21418922	0.58901204	0.48307821	-1.02508148	0.22719466	1.41367758	0.11687943	-0.04245156	0.08198232	-1.09604585	-4.24911981	-0.30301784	-0.27292255	-2.19953343	0.22685087
4180	41.79000000	0.14207901	0.24893890	-0.15200683	-0.11087998	-0.36207934	-0.12990137	-0.65168383	-0.08779333	-2.09108219	-0.17755617	0.68276538	0.70664554	-0.81891669	0.16901029	1.47530287	0.05959842	-0.01364344	-0.20106099	-0.92160190	-4.54418330	-0.67560247	-0.26069555	-2.11803106	0.19250520
4181	41.80000000	0.13549957	0.21736263	-0.11698319	-0.15137720	-0.53968248	-0.03491322	-0.44411226	-0.16858165	-2.12030755	-0.14074989	0.73809552	0.92604479	-0.68192093	-0.00001736	1.42812101	-0.07729704	-0.11161319	-0.28941500	-0.56522021	-4.63290096	-1.03590580	-0.36884095	-1.88503967	0.19464529
4182	41.81000000	0.08190584	0.18121634	-0.07622916	-0.19376543	-0.62461097	0.06969111	-0.21185824	-0.25865932	-2.17964667	-0.04948105	0.73579500	1.10794876	-0.59685547	-0.19799154	1.32192142	-0.20150743	-0.28514120	-0.14570757	-0.13450972	-4.56436127	-1.36568450	-0.48398234	-1.53779560	0.21346571
4183	41.82000000	-0.01569467	0.14468346	-0.03901207	-0.22177869	-0.59444442	0.14436799	0.05033291	-0.35856145	-2.25514754	0.15051590	0.65829243	1.21876285	-0.53390305	-0.33369949	1.22465441	-0.21121672	-0.46922257	0.23571879	0.23895488	-4.40333562	-1.65428119	-0.48081753	-1.13476303	0.23183787
4184	41.83000000	-0.14006410	0.11190097	-0.01606332	-0.24344066	-0.46325427	0.17867158	0.34567836	-0.44713153	-2.33438934	0.42162368	0.52370144	1.26112951	-0.49301885	-0.38056183	1.14558709	-0.09739093	-0.62066992	0.74782395	0.40935799	-4.16069708	-1.85816199	-0.36310553	-0.74123291	0.23921721
4185	41.84000000	-0.26301556	0.08696796	-0.01923716	-0.28546241	-0.27320177	0.18455487	0.67579900	-0.48652653	-2.40612031	0.65551949	0.37759892	1.26558543	-0.49706771	-0.36175755	1.04882711	0.07757998	-0.71309754	1.19684787	0.22004606	-3.80582385	-1.90849807	-0.23393261	-0.42773333	0.23013006
4186	41.85000000	-0.36343628	0.07115530	-0.05493300	-0.36069767	-0.06497883	0.17354635	1.00536100	-0.45400663	-2.44629587	0.77658249	0.25681596	1.26189799	-0.55727192	-0.30639668	0.91710888	0.24920069	-0.72914073	1.43319549	-0.32038713	-3.30200276	-1.75371095	-0.16659336	-0.24085802	0.20253099
4187	41.86000000	-0.44207057	0.05733282	-0.11325572	-0.43939575	0.12723579	0.15420115	1.18934454	-0.37298562	-2.39276917	0.81176769	0.17009705	1.27541658	-0.64850776	-0.25740950	0.79196673	0.35217952	-0.67695585	1.44513289	-0.71149996	-2.59759222	-1.39541361	-0.13826665	-0.15568133	0.16417363
4188	41.87000000	-0.50355659	0.03718096	-0.18139116	-0.48618268	0.27191040	0.13435975	1.07656927	-0.27402672	-2.17937210	0.80417615	0.12040493	1.32914449	-0.73869883	-0.25679996	0.72215511	0.32592067	-0.57060901	1.25192912	-0.40838607	-1.64904321	-0.84988012	-0.11038919	-0.13456134	0.12450126
